<?xml version="1.0" standalone="no"?>
<svg version="1.0" xmlns="http://www.w3.org/2000/svg"
 width="500.000000pt" height="500.000000pt" viewBox="0 0 500.000000 500.000000"
 preserveAspectRatio="xMidYMid meet">
<g transform="translate(0.000000,500.000000) scale(0.100000,-0.100000)"
fill="#686C84" stroke="none">
<path d="M2831 4738 c48 -45 116 -98 299 -235 215 -160 346 -297 418 -438 29
-57 39 -90 53 -172 10 -62 10 -84 -5 -160 -10 -48 -21 -92 -24 -98 -4 -5 -7
-14 -8 -20 -7 -44 -79 -167 -168 -287 -54 -74 -291 -310 -373 -373 -28 -22
-100 -78 -158 -125 -59 -47 -117 -92 -129 -100 -32 -22 -159 -114 -266 -194
-108 -80 -267 -215 -322 -272 -51 -54 -126 -169 -138 -213 -45 -159 13 -287
164 -361 97 -48 150 -58 466 -90 142 -15 408 -50 520 -70 231 -40 471 -107
504 -140 16 -16 -21 -42 -144 -103 -216 -107 -492 -213 -725 -278 -68 -19
-128 -36 -170 -48 -116 -32 -301 -68 -550 -108 -164 -26 -586 -25 -705 1 -107
24 -157 46 -204 86 -52 46 -66 79 -66 152 0 106 51 238 180 468 26 47 75 134
109 193 33 60 61 111 61 114 0 2 17 35 39 71 59 103 115 208 104 197 -13 -13
-242 -375 -303 -479 -26 -45 -75 -134 -109 -199 -58 -109 -82 -139 -98 -123
-8 8 56 148 119 261 60 107 125 211 350 563 93 144 203 320 246 390 115 187
271 514 386 807 26 66 51 129 56 140 31 75 120 340 136 410 4 18 45 179 54
216 6 20 10 47 9 60 0 13 -16 -32 -34 -101 -126 -467 -399 -1122 -622 -1490
-38 -63 -173 -277 -300 -475 -253 -395 -349 -555 -414 -687 -30 -61 -49 -88
-61 -88 -10 0 -18 2 -18 5 0 3 19 49 43 102 55 126 113 224 380 643 314 493
361 569 438 715 202 384 416 928 525 1330 39 146 28 122 -46 -97 -126 -374
-355 -918 -507 -1207 -95 -180 -142 -257 -391 -646 -277 -432 -392 -621 -449
-742 -33 -71 -48 -93 -63 -93 -29 0 -25 16 30 128 62 128 150 272 415 687 117
182 246 386 287 455 224 371 515 1050 702 1634 32 98 55 181 52 184 -3 3 -6 0
-6 -6 0 -19 -194 -518 -300 -772 -123 -297 -219 -508 -330 -730 -120 -239
-161 -308 -448 -757 -300 -468 -353 -555 -426 -700 -31 -62 -60 -113 -64 -113
-4 0 -13 4 -20 9 -11 6 0 35 47 129 67 135 171 306 473 777 252 392 303 481
439 760 102 208 354 784 346 791 -1 2 -38 -74 -82 -169 -121 -264 -316 -663
-391 -800 -110 -199 -150 -264 -401 -652 -282 -437 -372 -584 -442 -722 -39
-79 -56 -103 -71 -103 -11 0 -20 5 -20 10 0 20 111 232 182 348 39 64 187 297
329 518 142 220 288 456 326 525 77 138 208 387 200 379 -3 -3 -48 -75 -99
-160 -147 -243 -276 -447 -518 -816 -52 -80 -106 -164 -120 -185 -14 -22 -68
-106 -121 -187 -181 -277 -272 -489 -299 -697 -27 -217 38 -404 194 -552 145
-138 333 -228 586 -279 101 -20 353 -44 475 -44 243 0 694 47 940 100 22 5 67
14 100 21 113 23 325 79 435 116 640 210 1012 500 1075 837 19 98 7 179 -40
281 -55 119 -185 241 -340 318 -216 108 -627 187 -1106 213 -64 3 -123 10
-130 15 -16 10 52 78 257 259 265 233 511 497 625 670 104 156 181 310 210
415 43 161 54 263 40 381 -28 232 -168 442 -416 619 -176 126 -453 250 -600
270 -27 3 -61 9 -75 12 -23 4 -23 2 11 -29z"/>
<path d="M2446 4244 c-4 -14 -5 -28 -3 -31 3 -2 8 8 11 23 4 14 5 28 3 31 -3
2 -8 -8 -11 -23z"/>
</g>
</svg>
